<svg version="1.1" width="123" height="122" viewBox="-1 -1 123 122" xmlns="http://www.w3.org/2000/svg" xmlns:xlink="http://www.w3.org/1999/xlink">
  <defs>
    <linearGradient id="grad_1" y2="1">
      <stop offset="0" stop-color="#FFFFFF" stop-opacity="0"/>
      <stop offset="1" stop-color="#FFFFFF" stop-opacity="1"/>
    </linearGradient>
    <linearGradient id="grad_2" y2="1">
      <stop offset="0" stop-color="#FFFFFF" stop-opacity="0"/>
      <stop offset="1" stop-color="#FFFFFF" stop-opacity="1"/>
    </linearGradient>
  </defs>
  <!-- Exported by Scratch - http://scratch.mit.edu/ -->
  <g id="ID0.15523275081068277">
    <path id="L_Leg_1_" fill="#9A8479" stroke="#000000" d="M 62.894 115.785 C 58.589 114.144 57.920 118.415 57.920 118.415 C 57.920 118.415 58.252 124.125 58.252 126.212 C 58.248 128.299 58.115 130.241 58.115 130.241 C 58.115 130.241 57.401 130.622 57.790 131.441 C 58.178 132.264 60.870 132.223 64.296 132.405 C 67.723 132.588 70.367 132.009 70.732 131.139 C 71.097 130.280 70.032 129.974 70.032 129.974 C 70.032 129.974 67.837 124.324 68.293 121.750 C 68.900 118.320 67.200 117.426 62.894 115.785 L 62.894 115.785 L 62.894 115.785 L 62.894 115.785 L 62.894 115.785 L 62.894 115.785 L 62.894 115.785 L 62.894 115.785 L 62.894 115.785 L 62.894 115.785 L 62.894 115.785 L 62.894 115.785 L 62.894 115.785 L 62.894 115.785 L 62.894 115.785 L 62.894 115.785 L 62.894 115.785 L 62.894 115.785 Z " transform="matrix(0.9036146402359009, 0, 0, 0.908536970615387, -0.1, -0.45)"/>
    <path id="R_Leg_2_" fill="#9A8479" stroke="#000000" d="M 74.011 116.548 C 70.774 118.026 71.845 121.969 71.845 121.969 C 71.845 121.969 72.655 125.560 72.721 127.510 C 72.789 129.459 72.721 130.265 72.721 130.265 C 72.721 130.265 72.145 130.331 72.301 131.073 C 72.452 131.816 74.201 132.623 79.111 132.490 C 84.022 132.351 84.954 131.240 84.960 130.673 C 84.968 130.105 83.886 129.530 83.886 129.530 C 83.886 129.530 83.302 125.898 82.488 122.741 C 81.672 119.583 80.049 116.551 80.049 116.551 C 79.217 114.823 77.249 115.068 74.011 116.548 L 74.011 116.548 L 74.011 116.548 L 74.011 116.548 L 74.011 116.548 L 74.011 116.548 L 74.011 116.548 L 74.011 116.548 L 74.011 116.548 L 74.011 116.548 L 74.011 116.548 L 74.011 116.548 L 74.011 116.548 L 74.011 116.548 L 74.011 116.548 L 74.011 116.548 L 74.011 116.548 L 74.011 116.548 Z " transform="matrix(0.9036146402359009, 0, 0, 0.908536970615387, -0.1, -0.45)"/>
    <path id="Belly" fill="#9A8479" stroke="#000000" d="M 66.617 100.363 C 57.670 101.056 56.105 106.420 56.105 106.420 C 55.856 107.555 55.389 110.164 55.650 112.836 C 55.650 112.836 55.832 114.443 56.256 115.676 C 56.851 117.388 57.952 118.892 59.812 119.776 C 65.323 122.399 70.626 122.644 75.610 120.648 C 78.784 119.381 80.111 116.581 80.925 114.023 C 81.119 113.412 81.172 111.412 81.172 111.412 C 81.155 110.836 81.092 110.299 80.988 109.822 C 80.612 108.094 79.709 106.203 78.979 104.862 C 78.982 104.862 75.565 99.671 66.617 100.363 L 66.617 100.363 L 66.617 100.363 L 66.617 100.363 L 66.617 100.363 L 66.617 100.363 L 66.617 100.363 L 66.617 100.363 L 66.617 100.363 L 66.617 100.363 L 66.617 100.363 L 66.617 100.363 L 66.617 100.363 L 66.617 100.363 L 66.617 100.363 L 66.617 100.363 L 66.617 100.363 L 66.617 100.363 Z " transform="matrix(0.9036146402359009, 0, 0, 0.908536970615387, -0.1, -0.45)"/>
    <path id="R_Arm" fill="#9A8479" stroke="#000000" d="M 84.577 103.286 C 87.889 104.763 91.370 106.753 91.550 108.659 C 92.058 114.069 85.570 121.464 82.015 116.889 C 81.214 115.860 81.288 114.778 81.745 113.784 C 81.227 113.352 80.673 112.718 80.823 112.026 C 81.094 110.803 83.134 111.620 83.134 111.620 L 84.495 110.640 L 84.645 110.542 C 84.440 109.751 82.700 109.226 81.463 108.944 C 81.463 108.944 74.422 102.317 84.577 103.286 L 84.577 103.286 L 84.577 103.286 L 84.577 103.286 L 84.577 103.286 L 84.577 103.286 L 84.577 103.286 L 84.577 103.286 L 84.577 103.286 L 84.577 103.286 L 84.577 103.286 L 84.577 103.286 L 84.577 103.286 L 84.577 103.286 L 84.577 103.286 L 84.577 103.286 L 84.577 103.286 L 84.577 103.286 Z " transform="matrix(0.9036146402359009, 0, 0, 0.908536970615387, -0.1, -0.45)"/>
    <path id="L_Arm" fill="#9A8479" stroke="#000000" d="M 52.026 104.048 C 48.714 105.523 45.233 107.515 45.055 109.419 C 44.546 114.829 51.034 122.226 54.589 117.649 C 55.391 116.620 55.315 115.538 54.858 114.544 C 55.376 114.112 55.932 113.478 55.780 112.786 C 55.509 111.563 53.471 112.382 53.471 112.382 L 52.108 111.400 L 51.958 111.304 C 52.163 110.513 53.903 109.986 55.140 109.704 C 55.140 109.706 62.181 103.079 52.026 104.048 L 52.026 104.048 L 52.026 104.048 L 52.026 104.048 L 52.026 104.048 L 52.026 104.048 L 52.026 104.048 L 52.026 104.048 L 52.026 104.048 L 52.026 104.048 L 52.026 104.048 L 52.026 104.048 L 52.026 104.048 L 52.026 104.048 L 52.026 104.048 L 52.026 104.048 L 52.026 104.048 L 52.026 104.048 Z " transform="matrix(0.9036146402359009, 0, 0, 0.908536970615387, -0.1, -0.45)"/>
    <g id="Head_1_">
      <path id="Head" fill="#9A8479" stroke="#000000" d="M 20.318 85.127 C 20.617 85.656 20.939 86.187 21.291 86.726 C 21.312 86.761 21.334 86.795 21.356 86.830 C 21.724 87.390 22.130 87.953 22.557 88.517 C 22.639 88.623 23.698 89.958 24.187 90.521 C 24.255 90.597 24.331 90.672 24.397 90.750 C 24.876 91.285 25.381 91.820 25.915 92.352 C 25.978 92.413 26.037 92.478 26.102 92.539 C 26.668 93.099 27.269 93.644 27.895 94.188 C 28.015 94.293 28.137 94.399 28.262 94.503 C 28.904 95.048 29.569 95.589 30.273 96.118 C 30.340 96.171 30.416 96.221 30.486 96.268 C 31.161 96.770 31.867 97.262 32.598 97.746 C 32.714 97.820 32.826 97.898 32.943 97.974 C 33.712 98.472 34.519 98.955 35.352 99.428 C 35.509 99.518 35.670 99.605 35.831 99.695 C 36.697 100.173 37.587 100.638 38.520 101.085 C 38.554 101.104 38.592 101.116 38.627 101.137 C 39.538 101.570 40.487 101.978 41.460 102.369 C 41.632 102.437 41.800 102.513 41.973 102.577 C 42.960 102.968 43.983 103.336 45.033 103.678 C 45.223 103.740 45.419 103.801 45.611 103.863 C 46.703 104.214 47.822 104.545 48.986 104.839 C 48.994 104.841 49.003 104.843 49.010 104.846 C 50.172 105.143 51.383 105.404 52.615 105.647 C 52.844 105.692 53.074 105.737 53.305 105.784 C 54.521 106.009 55.770 106.209 57.055 106.377 C 62.248 107.054 67.997 107.246 74.347 106.789 C 79.904 106.389 85.079 105.072 89.845 103.052 C 90.971 102.573 92.074 102.058 93.152 101.496 C 93.381 101.377 93.620 101.269 93.844 101.146 C 95.106 100.466 96.326 99.730 97.520 98.946 C 97.804 98.758 98.078 98.557 98.360 98.366 C 99.338 97.695 100.291 96.990 101.214 96.254 C 101.461 96.058 101.712 95.866 101.957 95.666 C 103.057 94.753 104.125 93.798 105.150 92.796 C 105.348 92.603 105.539 92.398 105.735 92.196 C 106.588 91.336 107.417 90.441 108.218 89.521 C 108.446 89.253 108.681 88.994 108.904 88.725 C 109.839 87.610 110.738 86.463 111.589 85.272 C 111.692 85.130 111.783 84.979 111.885 84.835 C 112.636 83.766 113.351 82.662 114.035 81.536 C 114.232 81.214 114.428 80.888 114.622 80.558 C 115.370 79.278 116.091 77.976 116.751 76.634 C 120.581 69.055 120.087 53.754 116.672 45.169 C 115.733 42.806 114.251 40.752 112.973 38.723 C 107 29.212 99.196 19.092 99.196 19.092 L 100.419 8.729 C 100.419 8.729 95.985 7.283 90.741 10.649 C 87.784 12.550 84.175 17.754 84.175 17.754 L 90.297 1.047 C 90.297 1.047 78.759 0.068 70.957 6.772 C 63.153 13.475 63.190 17.310 63.190 17.310 L 62.502 3.976 C 62.502 3.976 43.104 4.512 30.306 17.690 C 24.667 23.492 15.120 34.454 13.906 54.992 L 13.873 55.224 C 13.501 60.070 14.449 75.595 18.724 82.460 C 18.724 82.459 20.265 85.035 20.318 85.127 L 20.318 85.127 L 20.318 85.127 L 20.318 85.127 L 20.318 85.127 L 20.318 85.127 L 20.318 85.127 L 20.318 85.127 L 20.318 85.127 L 20.318 85.127 L 20.318 85.127 L 20.318 85.127 L 20.318 85.127 L 20.318 85.127 L 20.318 85.127 L 20.318 85.127 L 20.318 85.127 L 20.318 85.127 Z " transform="matrix(0.9036146402359009, 0, 0, 0.908536970615387, -0.1, -0.45)"/>
      <path id="Face" fill="#E6E7E8" stroke="#000000" d="M 95.656 55.164 C 95.656 55.164 92.627 61.335 84.745 64.487 C 76.863 67.644 67.761 67.740 67.761 67.740 L 74.652 57.972 C 74.652 57.972 71.353 60.264 68.344 61.983 C 65.335 63.704 61.609 64.280 61.609 64.280 L 66.339 55.392 C 66.339 55.392 37.535 61.175 33.951 73.546 C 30.370 85.916 40.456 98.878 62.213 100.248 C 78.672 101.283 100.092 95.516 103.675 81.904 C 107.260 68.289 95.656 55.164 95.656 55.164 L 95.656 55.164 L 95.656 55.164 L 95.656 55.164 L 95.656 55.164 L 95.656 55.164 L 95.656 55.164 L 95.656 55.164 L 95.656 55.164 L 95.656 55.164 L 95.656 55.164 L 95.656 55.164 L 95.656 55.164 L 95.656 55.164 L 95.656 55.164 L 95.656 55.164 L 95.656 55.164 L 95.656 55.164 Z " transform="matrix(0.9036146402359009, 0, 0, 0.908536970615387, -0.1, -0.45)"/>
      <g id="R_Ear_1_">
        <path id="Outer_Ear_1_" fill="#9A8479" stroke="#000000" stroke-linecap="round" d="M 110.506 48.067 C 110.506 48.067 129.186 37.570 133.455 46.496 C 137.726 55.421 130.087 65.881 114.147 75.345 C 114.148 75.345 114.500 59.806 110.506 48.067 L 110.506 48.067 L 110.506 48.067 L 110.506 48.067 L 110.506 48.067 L 110.506 48.067 L 110.506 48.067 L 110.506 48.067 L 110.506 48.067 L 110.506 48.067 L 110.506 48.067 L 110.506 48.067 L 110.506 48.067 L 110.506 48.067 L 110.506 48.067 L 110.506 48.067 L 110.506 48.067 L 110.506 48.067 Z M 110.506 48.067 C 110.171 46.693 109.068 44.067 109.068 44.067 M 113.734 77.765 L 113.934 75.252 " transform="matrix(0.9036146402359009, 0, 0, 0.908536970615387, -0.1, -0.45)"/>
        <path id="Inner_Ear" fill="#EE4036" stroke="#000000" d="M 113.934 75.251 C 114.038 72.373 114.035 67.634 113.385 61.716 C 113.012 58.273 112.290 54.720 111.549 51.652 L 111.551 51.656 C 122.493 48.870 132.231 58.987 132.231 58.987 L 132.235 58.987 C 126.766 68.069 114.022 75 114.022 75 L 113.934 75.251 L 113.934 75.251 L 113.934 75.251 L 113.934 75.251 L 113.934 75.251 L 113.934 75.251 L 113.934 75.251 L 113.934 75.251 L 113.934 75.251 L 113.934 75.251 L 113.934 75.251 L 113.934 75.251 L 113.934 75.251 L 113.934 75.251 L 113.934 75.251 L 113.934 75.251 L 113.934 75.251 L 113.934 75.251 Z " transform="matrix(0.9036146402359009, 0, 0, 0.908536970615387, -0.1, -0.45)"/>
      </g>
      <g id="L_Ear">
        <path id="Outer_Ear_2_" fill="#9A8479" stroke="#000000" stroke-linecap="round" d="M 22.833 82.191 C 7.317 76.015 -1.055 67.663 1.291 58.889 C 3.637 50.115 21.728 56.813 21.728 56.813 C 20.069 68.104 22.833 82.191 22.833 82.191 L 22.833 82.191 L 22.833 82.191 L 22.833 82.191 L 22.833 82.191 L 22.833 82.191 L 22.833 82.191 L 22.833 82.191 L 22.833 82.191 L 22.833 82.191 L 22.833 82.191 L 22.833 82.191 L 22.833 82.191 L 22.833 82.191 L 22.833 82.191 L 22.833 82.191 L 22.833 82.191 L 22.833 82.191 Z M 22.360 52.954 C 22.360 52.954 21.804 55.511 21.728 56.813 M 23.006 82.071 L 23.580 84.329 " transform="matrix(0.9036146402359009, 0, 0, 0.908536970615387, -0.1, -0.45)"/>
        <path id="Inner_Ear_1_" fill="#EE4036" stroke="#000000" d="M 22.890 81.857 C 22.890 81.857 10.584 77.497 4.338 70.069 L 4.341 70.068 C 4.341 70.068 11.309 59.375 21.375 60.239 L 21.376 60.236 C 21.209 63.140 21.135 66.483 21.351 69.673 C 21.716 75.157 22.461 79.469 23.006 82.071 L 22.890 81.857 L 22.890 81.857 L 22.890 81.857 L 22.890 81.857 L 22.890 81.857 L 22.890 81.857 L 22.890 81.857 L 22.890 81.857 L 22.890 81.857 L 22.890 81.857 L 22.890 81.857 L 22.890 81.857 L 22.890 81.857 L 22.890 81.857 L 22.890 81.857 L 22.890 81.857 L 22.890 81.857 L 22.890 81.857 Z " transform="matrix(0.9036146402359009, 0, 0, 0.908536970615387, -0.1, -0.45)"/>
      </g>
      <path id="L_Eye_1_" fill="#231F20" d="M 58.692 77.727 C 58.429 77.727 58.168 77.659 57.923 77.516 C 54.888 75.704 48.936 74.270 48.876 74.254 C 48.069 74.065 47.573 73.252 47.766 72.447 C 47.956 71.638 48.766 71.144 49.573 71.336 C 49.836 71.398 56.033 72.891 59.465 74.938 C 60.176 75.364 60.407 76.284 59.985 76.997 C 59.703 77.465 59.205 77.727 58.692 77.727 L 58.692 77.727 L 58.692 77.727 L 58.692 77.727 L 58.692 77.727 L 58.692 77.727 L 58.692 77.727 L 58.692 77.727 L 58.692 77.727 L 58.692 77.727 L 58.692 77.727 L 58.692 77.727 L 58.692 77.727 L 58.692 77.727 L 58.692 77.727 L 58.692 77.727 L 58.692 77.727 L 58.692 77.727 L 58.692 77.727 Z " transform="matrix(0.9036146402359009, 0, 0, 0.908536970615387, -0.1, -0.45)"/>
      <path id="R_Eye_1_" fill="#231F20" d="M 83.966 77.602 C 83.480 77.602 83.003 77.366 82.714 76.930 C 82.257 76.241 82.444 75.311 83.134 74.852 C 83.761 74.436 89.325 70.768 91.675 70.030 C 92.470 69.776 93.308 70.219 93.556 71.010 C 93.804 71.801 93.367 72.645 92.576 72.893 C 91.111 73.352 87.023 75.872 84.797 77.352 C 84.539 77.521 84.251 77.602 83.966 77.602 L 83.966 77.602 L 83.966 77.602 L 83.966 77.602 L 83.966 77.602 L 83.966 77.602 L 83.966 77.602 L 83.966 77.602 L 83.966 77.602 L 83.966 77.602 L 83.966 77.602 L 83.966 77.602 L 83.966 77.602 L 83.966 77.602 L 83.966 77.602 L 83.966 77.602 L 83.966 77.602 L 83.966 77.602 L 83.966 77.602 Z " transform="matrix(0.9036146402359009, 0, 0, 0.908536970615387, -0.1, -0.45)"/>
      <path id="Mouth_1_" fill="none" stroke="#231F20" stroke-linecap="round" d="M 57.378 89.473 C 57.378 89.473 65.848 92.819 69.850 92.950 C 76.332 92.150 87.808 87.531 87.808 87.531 " transform="matrix(0.9036146402359009, 0, 0, 0.908536970615387, -0.1, -0.45)"/>
    </g>
  </g>
  <g id="ID0.09714182931929827" transform="matrix(1.3022351264953613, 0, 0, 1, 28, 55)">
    <path id="ID0.6471739099361002" fill="url(#grad_1)" stroke="#000000" stroke-width="2" stroke-linecap="round" d="M 374.900 54.700 C 375.736 54.720 375.844 54.757 376.050 55.200 C 376.690 56.608 377.067 58.206 377 59.750 C 376.938 61.394 376.756 63.298 375.625 64.492 C 374.600 65.564 373.027 65.781 371.750 65.750 C 369.933 65.697 367.814 65.623 366.750 64.250 C 365.086 62.101 365.253 59.040 364.750 56.450 C 364.586 55.726 364.084 55.176 364.900 55.050 C 368.194 54.519 371.548 54.620 374.900 54.700 Z " transform="matrix(-1.159604549407959, 0, 0, 1.159604549407959, 473, -57.85)"/>
    <path id="ID0.6471739099361002" fill="url(#grad_2)" stroke="#000000" stroke-width="2" stroke-linecap="round" d="M 364.250 54.800 C 371.150 54.098 375.505 54.137 378.800 54.300 C 379.594 54.354 379.292 54.509 379.400 54.950 C 379.747 56.627 380.074 58.438 379.750 60.100 C 379.444 61.672 378.821 63.601 377.500 64.350 C 375.473 65.497 372.828 65.051 370.500 64.850 C 369.204 64.745 367.624 64.542 366.750 63.550 C 365.658 62.293 365.643 60.523 365.150 59 C 364.904 58.162 364.748 57.371 364.600 56.550 C 364.496 55.965 363.406 55.002 364.250 54.800 Z " transform="matrix(-1.159604549407959, 0, 0, 1.159604549407959, 452.75, -57.9)"/>
    <path id="ID0.46460056817159057" fill="none" stroke="#000000" stroke-width="2" stroke-linecap="round" d="M 376.750 56 L 381.250 55.750 " transform="matrix(-1.159604549407959, 0, 0, 1.159604549407959, 473, -57.85)"/>
    <path id="ID0.9668608279898763" fill="none" stroke="#000000" stroke-width="2" stroke-linecap="round" d="M 397.750 55 L 406.900 51.700 " transform="matrix(-1.159604549407959, 0, 0, 1.159604549407959, 473, -57.85)"/>
  </g>
  <g id="Scarf" transform="matrix(0.8838527202606201, 0, 0, 0.30789825320243835, 11, 87)">
    <g id="Bottom">
      <g id="Fringe">
        <path id="ID0.7067680577747524" fill="#871212" d="M 10.300 70.262 C 10.181 70.235 9.792 70.123 9.748 69.817 C 9.705 69.512 10.029 69.333 10.135 69.274 C 10.238 69.243 11.943 69.004 13.670 67.829 C 13.504 67.690 13.347 67.554 13.197 67.419 C 12.475 68.099 10.505 68.812 8.967 68.950 C 8.759 68.909 8.377 68.776 8.349 68.470 C 8.323 68.163 8.657 68 8.767 67.946 C 8.871 67.921 10.618 67.774 12.424 66.665 C 12.246 66.476 12.081 66.288 11.931 66.106 C 11.276 66.715 9.176 67.362 7.575 67.417 C 7.370 67.364 6.995 67.212 6.985 66.903 C 6.975 66.594 7.318 66.452 7.430 66.405 C 7.538 66.385 9.382 66.337 11.301 65.247 C 11.190 65.075 11.087 64.901 10.992 64.727 C 10.295 65.225 8.425 65.672 6.897 65.672 C 6.798 65.672 6.700 65.670 6.605 65.666 C 6.405 65.598 6.043 65.416 6.056 65.107 C 6.069 64.800 6.421 64.683 6.536 64.644 L 6.794 64.634 C 7.254 64.634 8.857 64.570 10.560 63.745 C 10.486 63.528 10.433 63.333 10.396 63.165 C 9.582 63.640 7.873 64.024 6.458 64.024 C 6.359 64.024 6.262 64.022 6.166 64.018 C 5.966 63.950 5.603 63.768 5.616 63.459 C 5.629 63.152 5.981 63.035 6.097 62.996 L 6.352 62.988 C 6.824 62.988 8.499 62.918 10.251 62.033 L 10.297 62.010 C 10.401 61.737 10.784 61.539 10.952 61.463 L 11.268 61.322 L 11.303 61.666 C 11.644 65.010 15.432 67.793 15.470 67.822 L 15.812 68.070 L 14.632 68.627 L 14.519 68.531 C 13.838 69.228 11.915 70.043 10.391 70.261 L 10.345 70.269 L 10.300 70.262 Z " transform="matrix(1.8856489658355713, 0, 0, 1.8856489658355713, -9.4, -58)"/>
        <path id="ID0.8515774309635162" d="M 11.054 61.694 C 11.410 65.192 15.323 68.026 15.323 68.026 L 14.671 68.335 L 14.485 68.177 C 14.478 68.191 14.477 68.198 14.469 68.214 C 14.151 68.792 12.038 69.775 10.356 70.019 C 10.356 70.019 9.614 69.851 10.258 69.494 C 10.258 69.494 12.193 69.240 14.085 67.844 C 13.752 67.578 13.452 67.319 13.180 67.063 C 13.169 67.084 13.165 67.100 13.150 67.124 C 12.802 67.685 10.639 68.552 8.946 68.704 C 8.946 68.704 8.215 68.495 8.877 68.173 C 8.877 68.173 10.841 68.025 12.816 66.712 C 12.471 66.362 12.172 66.023 11.924 65.698 C 11.905 65.735 11.887 65.774 11.853 65.823 C 11.474 66.364 9.267 67.110 7.567 67.169 C 7.567 67.169 6.849 66.921 7.527 66.638 C 7.527 66.638 9.554 66.601 11.630 65.347 C 11.630 65.347 11.645 65.347 11.666 65.345 C 11.406 64.972 11.208 64.622 11.055 64.300 C 11.035 64.331 11.020 64.362 10.989 64.400 C 10.593 64.880 8.554 65.425 6.897 65.425 C 6.802 65.425 6.708 65.423 6.615 65.419 C 6.615 65.419 5.917 65.118 6.615 64.884 C 6.615 64.884 6.678 64.888 6.794 64.888 C 7.334 64.888 9.021 64.808 10.804 63.908 C 10.804 63.908 10.806 63.908 10.810 63.908 C 10.822 63.908 10.851 63.910 10.886 63.914 C 10.689 63.412 10.605 63.002 10.574 62.717 C 10.564 62.731 10.561 62.738 10.550 62.754 C 10.154 63.234 8.115 63.779 6.458 63.779 C 6.363 63.779 6.269 63.777 6.176 63.773 C 6.176 63.773 5.478 63.472 6.176 63.240 C 6.176 63.240 6.238 63.244 6.352 63.244 C 6.890 63.244 8.579 63.164 10.364 62.262 C 10.364 62.262 10.364 62.262 10.365 62.262 C 10.376 62.262 10.472 62.264 10.559 62.293 C 10.560 62.273 10.561 62.262 10.561 62.262 C 10.343 62.014 11.054 61.694 11.054 61.694 M 11.481 60.954 L 10.849 61.239 C 10.627 61.339 10.271 61.534 10.107 61.829 C 8.415 62.675 6.805 62.741 6.350 62.741 C 6.260 62.741 6.208 62.737 6.202 62.737 L 6.107 62.733 L 6.016 62.762 C 5.494 62.936 5.373 63.233 5.364 63.451 C 5.344 63.920 5.827 64.164 5.976 64.228 L 6.061 64.265 L 6.154 64.269 C 6.253 64.273 6.354 64.275 6.456 64.275 C 7.693 64.275 9.279 63.982 10.232 63.545 C 10.238 63.566 10.245 63.590 10.252 63.613 C 8.672 64.326 7.221 64.384 6.792 64.384 C 6.701 64.384 6.648 64.382 6.641 64.382 L 6.546 64.376 L 6.455 64.405 C 5.934 64.581 5.813 64.878 5.804 65.096 C 5.784 65.565 6.267 65.809 6.416 65.873 L 6.501 65.910 L 6.594 65.914 C 6.693 65.918 6.794 65.920 6.896 65.920 C 8.238 65.920 9.992 65.576 10.901 65.074 C 10.917 65.099 10.932 65.127 10.948 65.152 C 9.175 66.086 7.533 66.132 7.516 66.132 L 7.421 66.134 L 7.333 66.171 C 6.826 66.382 6.728 66.689 6.735 66.907 C 6.750 67.374 7.250 67.583 7.402 67.636 L 7.490 67.670 L 7.583 67.666 C 8.988 67.617 10.992 67.084 11.895 66.451 C 11.939 66.502 11.984 66.553 12.030 66.605 C 10.379 67.539 8.854 67.669 8.837 67.671 L 8.743 67.680 L 8.657 67.721 C 8.162 67.961 8.082 68.272 8.101 68.491 C 8.143 68.958 8.653 69.137 8.809 69.182 L 8.898 69.207 L 8.990 69.200 C 9.323 69.169 9.688 69.110 10.064 69.028 L 10.015 69.055 C 9.534 69.323 9.470 69.637 9.501 69.852 C 9.567 70.317 10.087 70.469 10.245 70.504 L 10.335 70.525 L 10.426 70.511 C 11.792 70.314 13.681 69.587 14.533 68.872 L 14.592 68.923 L 14.884 68.784 L 15.536 68.477 L 16.300 68.116 L 15.616 67.620 C 15.579 67.593 11.880 64.872 11.551 61.641 L 11.481 60.954 L 11.481 60.954 Z M 10.221 68.993 C 11.366 68.723 12.573 68.255 13.209 67.763 C 13.224 67.777 13.239 67.790 13.255 67.802 C 11.793 68.717 10.431 68.959 10.221 68.993 L 10.221 68.993 Z " transform="matrix(1.8856489658355713, 0, 0, 1.8856489658355713, -9.4, -58)"/>
      </g>
      <path id="ID0.4368065632879734" fill="#BA2915" d="M 34.378 43.363 C 34.378 43.363 28.274 42.905 23.649 47.446 C 19.024 51.989 20.774 56.530 10.566 61.739 C 10.566 61.739 9.774 64.823 14.858 68.698 C 14.858 68.698 23.540 63.864 25.699 57.155 C 27.858 50.448 33.736 46.672 36.858 46.650 L 40.261 46.154 L 34.378 43.363 Z " transform="matrix(1.8856489658355713, 0, 0, 1.8856489658355713, -9.4, -58)"/>
      <g id="Stripes_2_">
        <path id="ID0.9594653621315956" fill="#871212" d="M 13.230 60.292 C 13.230 60.292 12.991 64.405 17.790 66.804 L 18.941 65.865 C 18.941 65.865 14.483 61.449 14.649 59.324 L 13.230 60.292 Z " transform="matrix(1.8856489658355713, 0, 0, 1.8856489658355713, -9.4, -58)"/>
        <path id="ID0.4252018965780735" fill="#871212" d="M 16.857 57.448 C 16.857 57.448 17.149 60.614 21.774 63.239 L 23.149 61.780 C 23.149 61.780 18.639 59.298 18.032 56.048 L 16.857 57.448 Z " transform="matrix(1.8856489658355713, 0, 0, 1.8856489658355713, -9.4, -58)"/>
        <path id="ID0.09512140555307269" fill="#871212" d="M 19.334 54.118 C 19.334 54.118 20.398 57.323 25.232 58.448 L 25.899 56.655 C 25.899 56.655 20.837 55.067 19.972 52.966 L 19.334 54.118 Z " transform="matrix(1.8856489658355713, 0, 0, 1.8856489658355713, -9.4, -58)"/>
        <path id="ID0.781469791661948" fill="#871212" d="M 21.727 49.808 C 21.727 49.808 22.587 52.544 27.348 53.558 L 28.400 52.074 C 28.400 52.074 23.168 49.718 22.617 48.582 L 21.727 49.808 Z " transform="matrix(1.8856489658355713, 0, 0, 1.8856489658355713, -9.4, -58)"/>
        <path id="ID0.6844138544984162" fill="#871212" d="M 24.787 46.448 L 30.816 49.405 L 32.492 47.926 C 32.492 47.926 26.804 45.206 26.456 45.326 C 26.108 45.446 24.787 46.448 24.787 46.448 Z " transform="matrix(1.8856489658355713, 0, 0, 1.8856489658355713, -9.4, -58)"/>
        <path id="ID0.42429394368082285" fill="#871212" d="M 30.105 44.080 L 35.072 46.929 L 37.417 46.565 L 32.466 43.378 L 30.105 44.080 " transform="matrix(1.8856489658355713, 0, 0, 1.8856489658355713, -9.4, -58)"/>
      </g>
      <path id="ID0.09295754041522741" d="M 14.836 68.995 L 14.706 68.897 C 9.550 64.965 10.289 61.809 10.324 61.676 L 10.352 61.567 L 10.452 61.516 C 16.971 58.190 18.560 55.139 20.096 52.190 C 20.937 50.575 21.806 48.904 23.474 47.268 C 27.413 43.400 32.448 43.100 33.897 43.100 C 34.218 43.100 34.397 43.114 34.397 43.114 L 41.114 46.283 L 36.894 46.898 C 33.680 46.922 27.986 50.864 25.936 57.231 C 23.771 63.956 15.337 68.717 14.979 68.917 L 14.836 68.995 L 14.836 68.995 Z M 10.792 61.903 C 10.725 62.456 10.658 65.126 14.878 68.397 C 16.005 67.737 23.507 63.149 25.461 57.079 C 27.663 50.239 33.596 46.423 36.856 46.400 L 39.409 46.026 L 34.292 43.598 C 34.283 43.608 34.130 43.600 33.897 43.599 C 32.496 43.599 27.627 43.890 23.825 47.623 C 22.214 49.205 21.401 50.767 20.540 52.419 C 18.976 55.422 17.359 58.526 10.792 61.903 L 10.792 61.903 Z " transform="matrix(1.8856489658355713, 0, 0, 1.8856489658355713, -9.4, -58)"/>
    </g>
    <g id="Middle">
      <path id="Base_Fill_1_" fill="#BA2915" d="M 30.816 44.903 C 30.816 44.903 36.609 47.529 42.243 46.341 C 47.878 45.153 49.690 43.714 51.753 44.903 C 51.753 44.903 52.878 42.779 49.191 41.279 C 49.191 41.279 50.441 38.717 48.441 37.654 C 48.440 37.654 40.752 34.590 30.816 44.903 Z " transform="matrix(1.8856489658355713, 0, 0, 1.8856489658355713, -9.4, -58)"/>
      <g id="Stripes_1_">
        <path id="Stripe_10_" fill="#871212" d="M 38.454 39.056 C 38.454 39.056 41.393 41.145 40.261 46.650 L 39.361 46.650 C 39.361 46.650 40.187 41.979 37.630 39.529 L 38.454 39.056 Z " transform="matrix(1.8856489658355713, 0, 0, 1.8856489658355713, -9.4, -58)"/>
        <path id="Stripe_9_" fill="#871212" d="M 41.627 37.779 C 41.627 37.779 44.178 39.821 43.699 45.753 L 44.828 45.463 C 44.828 45.463 45.377 40.591 42.939 37.435 L 41.627 37.779 Z " transform="matrix(1.8856489658355713, 0, 0, 1.8856489658355713, -9.4, -58)"/>
        <path id="Stripe_8_" fill="#871212" d="M 35.066 41.092 C 35.066 41.092 36.941 43.467 36.441 46.451 L 35.796 46.350 C 35.796 46.350 35.284 42.277 34.378 41.669 L 35.066 41.092 Z " transform="matrix(1.8856489658355713, 0, 0, 1.8856489658355713, -9.4, -58)"/>
        <path id="Stripe_7_" fill="#871212" d="M 48.440 40.967 C 48.372 40.797 48.290 38.092 47.647 37.436 L 46.221 37.229 C 46.221 37.229 47.666 38.546 47.334 40.835 C 47.334 40.835 49.057 42.361 48.857 44.367 L 49.908 44.367 C 49.909 44.367 49.971 42.029 48.440 40.967 Z " transform="matrix(1.8856489658355713, 0, 0, 1.8856489658355713, -9.4, -58)"/>
      </g>
      <path id="Outline_5_" d="M 52.026 43.361 C 51.706 42.479 50.864 41.735 49.522 41.148 C 49.936 40.116 50.172 38.291 48.534 37.422 C 48.487 37.404 47.399 36.979 45.518 36.979 C 42.135 36.979 36.809 38.324 30.636 44.730 L 30.390 44.985 L 30.713 45.131 C 30.752 45.149 34.668 46.900 39.147 46.900 C 40.249 46.900 41.307 46.795 42.295 46.587 C 44.199 46.185 45.674 45.754 46.859 45.407 C 49.158 44.734 50.402 44.415 51.627 45.120 L 51.852 45.249 L 51.973 45.020 C 51.989 44.990 52.358 44.276 52.026 43.361 Z M 51.616 44.548 C 50.333 43.932 48.999 44.259 46.720 44.926 C 45.544 45.270 44.079 45.699 42.193 46.096 C 41.240 46.297 40.214 46.399 39.148 46.399 C 35.523 46.399 32.274 45.223 31.252 44.814 C 37.193 38.760 42.281 37.478 45.519 37.478 C 47.279 37.478 48.320 37.874 48.324 37.874 C 49.775 38.645 49.304 40.312 49.066 40.932 C 48.462 40.738 47.013 40.509 45.004 41.747 C 45.004 41.747 47.102 40.697 49.285 41.600 C 50.488 42.124 51.279 42.782 51.553 43.520 C 51.711 43.952 51.672 44.321 51.616 44.548 Z " transform="matrix(1.8856489658355713, 0, 0, 1.8856489658355713, -9.4, -58)"/>
    </g>
    <g id="Top">
      <path id="Base_Fill" fill="#BA2915" d="M 21.253 36.529 C 21.253 36.529 20.003 35.591 20.628 34.467 C 21.253 33.343 22.378 32.860 22.378 32.976 C 22.378 33.092 33.190 41.987 45.377 32.571 L 45.377 31.290 C 45.377 31.290 49.939 33.405 48.439 37.655 C 48.439 37.655 45.703 36.780 43.166 39.530 C 40.627 42.280 38.377 48.155 18.940 42.592 C 18.940 42.592 17.378 42.092 18.190 40.592 C 19.002 39.092 21.441 37.654 21.253 36.529 Z " transform="matrix(1.8856489658355713, 0, 0, 1.8856489658355713, -9.4, -58)"/>
      <g id="Stripes">
        <path id="Stripe_1_" fill="#871212" d="M 23.552 33.851 C 23.552 33.851 21.847 34.459 22.722 37.229 C 22.722 37.229 22.660 38.811 21.410 40.124 C 20.160 41.437 20.191 42.374 19.972 42.874 L 21.972 43.351 C 21.972 43.351 22.066 41.624 22.878 40.656 C 23.690 39.688 23.839 38.285 23.921 37.658 C 24.003 37.031 23.128 35.531 24.472 34.500 L 23.552 33.851 Z " transform="matrix(1.8856489658355713, 0, 0, 1.8856489658355713, -9.4, -58)"/>
        <path id="Stripe" fill="#871212" d="M 26.908 35.660 C 26.926 35.400 26.304 36.746 26.512 38.513 C 26.720 40.280 25.658 41.183 25.251 42.356 C 24.844 43.529 24.787 44.034 24.787 44.034 L 26.244 44.313 C 26.244 44.313 26.937 41.779 27.537 40.737 C 28.137 39.695 27.804 38.677 27.804 37.645 C 27.804 36.613 28.127 36.157 28.127 36.157 L 26.908 35.660 Z " transform="matrix(1.8856489658355713, 0, 0, 1.8856489658355713, -9.4, -58)"/>
        <path id="Stripe_2_" fill="#871212" d="M 30.816 36.659 C 30.816 36.738 30.108 38.571 30.524 40.404 C 30.940 42.237 29.826 44.538 29.826 44.538 L 31.222 44.630 C 31.222 44.630 32.065 42.510 31.857 40.645 C 31.649 38.780 31.590 38.199 31.890 36.802 L 30.816 36.659 Z " transform="matrix(1.8856489658355713, 0, 0, 1.8856489658355713, -9.4, -58)"/>
        <path id="Stripe_3_" fill="#871212" d="M 34.660 36.811 C 34.660 36.811 35.598 39.436 34.816 41.780 C 34.816 41.780 35.503 43.169 34.378 44.631 L 35.127 44.631 C 35.127 44.631 36.222 43.694 35.910 41.941 C 35.910 41.941 37.183 40.810 35.966 36.812 L 34.660 36.812 Z " transform="matrix(1.8856489658355713, 0, 0, 1.8856489658355713, -9.4, -58)"/>
        <path id="Stripe_4_" fill="#871212" d="M 38.770 36.102 C 38.770 36.102 40.668 38.488 39.774 41.717 C 39.774 41.717 40.003 42.196 39.565 43.050 L 40.649 42.321 C 40.649 42.321 40.903 41.753 40.837 41.550 C 40.771 41.347 41.997 39.726 40.189 35.628 L 38.770 36.102 Z " transform="matrix(1.8856489658355713, 0, 0, 1.8856489658355713, -9.4, -58)"/>
        <path id="Stripe_5_" fill="#871212" d="M 43.149 34.133 C 43.149 34.133 44.920 35.404 44.483 38.425 L 45.587 37.800 C 45.587 37.800 45.587 34.654 44.066 33.592 L 43.149 34.133 Z " transform="matrix(1.8856489658355713, 0, 0, 1.8856489658355713, -9.4, -58)"/>
        <path id="Stripe_6_" fill="#871212" d="M 45.627 32.693 C 45.627 32.693 48.559 33.615 48.313 37.229 L 48.327 37.615 C 48.327 37.615 50.399 34.238 45.378 31.384 L 45.627 32.693 Z " transform="matrix(1.8856489658355713, 0, 0, 1.8856489658355713, -9.4, -58)"/>
      </g>
      <path id="Outline_4_" d="M 45.483 31.062 L 45.128 30.897 L 45.128 32.446 C 41.491 35.228 37.625 36.639 33.633 36.639 C 27.378 36.639 23.080 33.245 22.615 32.856 L 22.598 32.707 L 22.348 32.707 C 22.050 32.707 21 33.281 20.410 34.344 C 19.874 35.308 20.503 36.213 20.991 36.635 L 20.983 36.657 C 20.992 36.664 21.002 36.668 21.011 36.675 C 20.993 37.189 20.285 37.887 19.596 38.564 C 18.975 39.175 18.333 39.806 17.971 40.473 C 17.689 40.994 17.632 41.472 17.801 41.894 C 18.073 42.570 18.832 42.820 18.872 42.832 C 24.254 44.372 28.768 45.153 32.290 45.153 C 38.838 45.153 41.020 42.500 42.612 40.563 C 42.866 40.255 43.106 39.962 43.350 39.699 C 44.819 38.107 46.348 37.772 47.371 37.772 C 47.973 37.772 48.361 37.892 48.365 37.893 L 48.595 37.966 L 48.675 37.738 C 50.233 33.324 45.530 31.085 45.483 31.062 Z M 48.276 37.357 C 47.512 37.203 45.133 37.029 42.983 39.359 C 42.733 39.629 42.487 39.929 42.227 40.245 C 41.987 40.536 41.737 40.837 41.467 41.140 C 36.903 42.646 32.409 41.091 32.409 41.091 C 35.583 42.897 39.576 42.100 40.875 41.767 C 39.334 43.281 37.020 44.653 32.290 44.653 C 28.815 44.653 24.347 43.879 19.018 42.354 C 19.012 42.352 18.446 42.162 18.264 41.704 C 18.154 41.428 18.203 41.094 18.410 40.711 C 18.736 40.110 19.351 39.505 19.946 38.921 C 20.639 38.239 21.294 37.588 21.463 36.956 C 22.879 37.734 24.566 37.685 24.566 37.685 C 22.800 37.244 21.907 36.736 21.490 36.428 L 21.484 36.389 L 21.404 36.329 C 21.360 36.296 20.337 35.506 20.847 34.588 C 21.329 33.719 22.119 33.283 22.318 33.216 C 23.279 34.134 27.791 37.139 33.632 37.139 C 37.771 37.139 41.775 35.668 45.531 32.767 L 45.627 32.692 L 45.627 31.704 C 46.624 32.278 49.266 34.146 48.276 37.357 Z " transform="matrix(1.8856489658355713, 0, 0, 1.8856489658355713, -9.4, -58)"/>
    </g>
  </g>
</svg>